<svg xmlns="http://www.w3.org/2000/svg" fill="#fff" viewBox="0 0 207.1 207.1">
  <path d="M103.55 207.1C46.45 207.1 0 160.65 0 103.55S46.45 0 103.55 0 207.1 46.45 207.1 103.55 160.65 207.1 103.55 207.1Zm0-205.1C47.56 2 2 47.55 2 103.55S47.56 205.1 103.55 205.1 205.1 159.54 205.1 103.55 159.55 2 103.55 2Z" class="cls-1"/>
  <path d="m155.54 92.27-21.67-9.29V67.86c0-.43-.17-.84-.47-1.15l-11.33-11.33c-.31-.3-.72-.47-1.15-.47H64.27a4.87 4.87 0 0 0-4.86 4.86v87.4a4.87 4.87 0 0 0 4.86 4.86h64.74a4.87 4.87 0 0 0 4.86-4.86v-4.03l8.43-6a34.1 34.1 0 0 0 14.23-27.66V93.76c0-.65-.39-1.24-.99-1.49Zm-33-31.83 5.81 5.81h-5.81v-5.81Zm8.09 86.73c0 .89-.72 1.62-1.62 1.62H64.27c-.89 0-1.62-.72-1.62-1.62v-87.4c0-.89.72-1.62 1.62-1.62h55.03v9.71c0 .89.72 1.62 1.62 1.62h9.71v13.5l-10.39 4.45-7.07-7.07a3.99 3.99 0 0 0 1.28-2.78c0-1.91-1.59-3.16-2.85-4.16a6.44 6.44 0 0 1-1.49-1.41 5.7 5.7 0 0 1 .03-2.18c.18-1.67.39-3.54-.91-4.84-1.29-1.29-3.19-1.08-4.84-.91-.71.15-1.45.16-2.17.03a5.75 5.75 0 0 1-1.42-1.49c-1-1.28-2.25-2.85-4.16-2.85s-3.16 1.59-4.16 2.85a6.44 6.44 0 0 1-1.41 1.49 5.7 5.7 0 0 1-2.18-.03c-1.67-.18-3.54-.39-4.84.91-1.29 1.29-1.08 3.17-.91 4.84.15.71.16 1.45.03 2.17a5.75 5.75 0 0 1-1.49 1.42c-1.28 1-2.85 2.25-2.85 4.16.04 1.06.5 2.06 1.28 2.78l-9.81 9.81a1.6 1.6 0 0 0-.37 1.68c.2.59.73 1 1.34 1.07l9.01 1 1 9.01c.06.62.48 1.14 1.07 1.34.17.06.35.1.53.1.43 0 .84-.17 1.15-.47l9.81-9.81a3.66 3.66 0 0 0 5.56 0l8.55 8.53v6.85c0 1.24.08 2.48.21 3.71H69.11v3.24h39.57c.24 1.1.52 2.17.84 3.24H69.11v3.24h41.63a34.79 34.79 0 0 0 1.6 3.24H69.11v3.24h45.3c.81 1.14 1.7 2.22 2.65 3.24H69.11v3.24h51.39c.55.44 1.12.87 1.68 1.29l8.43 6v4.03Zm-46.58-57c1.29 1.29 3.17 1.08 4.84.91a6.09 6.09 0 0 1 2.17-.03c.26.15.49.34.68.58l-7.59 7.61-.78-6.96a1.62 1.62 0 0 0-1.42-1.42l-6.96-.78 7.61-7.59c.24.18.43.41.58.66a5.7 5.7 0 0 1-.03 2.18c-.18 1.67-.39 3.54.91 4.84Zm6.33-2.46c-.62.02-1.23.06-1.85.15-.72.14-1.46.15-2.18.03a5.82 5.82 0 0 1 .02-2.2 7.65 7.65 0 0 0-.19-3.77 7.28 7.28 0 0 0-2.48-2.72c-.53-.42-1.62-1.28-1.62-1.62s1.08-1.2 1.62-1.62a7.45 7.45 0 0 0 2.48-2.72c.38-1.22.45-2.52.19-3.77a6.14 6.14 0 0 1-.03-2.18 5.82 5.82 0 0 1 2.2.02c1.25.25 2.55.19 3.77-.19a7.28 7.28 0 0 0 2.72-2.48c.42-.53 1.28-1.62 1.62-1.62s1.2 1.08 1.62 1.62a7.45 7.45 0 0 0 2.72 2.48c1.22.38 2.52.45 3.77.19a6.14 6.14 0 0 1 2.18-.03c.13.73.13 1.47-.02 2.2a7.65 7.65 0 0 0 .19 3.77 7.28 7.28 0 0 0 2.48 2.72c.53.42 1.62 1.28 1.62 1.62s-1.08 1.2-1.62 1.62a7.45 7.45 0 0 0-2.48 2.72 7.53 7.53 0 0 0-.19 3.77c.14.72.15 1.46.03 2.18-.73.13-1.47.12-2.2-.02a7.65 7.65 0 0 0-3.77.19 7.28 7.28 0 0 0-2.72 2.48c-.42.53-1.28 1.62-1.62 1.62s-1.2-1.08-1.62-1.62a7.45 7.45 0 0 0-2.72-2.48 4.89 4.89 0 0 0-1.93-.34Zm11.83 3.33a5.7 5.7 0 0 1 2.18.03c1.65.18 3.54.39 4.84-.91 1.29-1.29 1.08-3.17.91-4.84a5.66 5.66 0 0 1-.03-2.17c.15-.26.34-.49.58-.68l6.34 6.33-8.08 3.46c-.6.25-.99.84-.99 1.49v4.31l-6.43-6.44c.18-.24.41-.43.66-.58Zm51.08 18.43c0 9.93-4.8 19.25-12.88 25.02l-8.16 5.83-8.16-5.83a30.78 30.78 0 0 1-12.88-25.02V94.82l21.04-9.01 21.04 9.01v14.65Z" class="cls-1"/>
  <path d="M104.74 77.58a8.09 8.09 0 1 0-16.17 0 8.09 8.09 0 0 0 16.17 0Zm-12.95 0a4.86 4.86 0 1 1 9.72 0 4.86 4.86 0 0 1-9.72 0Zm57.25 19.53-16.18-6.47a1.66 1.66 0 0 0-1.2 0l-16.18 6.47c-.61.25-1.02.84-1.02 1.5v10.21a27.34 27.34 0 0 0 10.33 21.48l6.47 5.18c.59.47 1.43.47 2.02 0l6.47-5.18a27.39 27.39 0 0 0 10.33-21.48V98.61c0-.66-.4-1.26-1.02-1.5Zm-18.8 21.99c-.3.34-.72.54-1.17.55h-.05c-.43 0-.84-.17-1.14-.47l-4.86-4.86 2.29-2.29 3.63 3.64 10.2-11.65 2.44 2.13-11.33 12.95Z" class="cls-1"/>
</svg>
