<svg xmlns="http://www.w3.org/2000/svg" fill="#fff" viewBox="0 0 207.1 207.1">
  <path d="M103.55 207.1C46.45 207.1 0 160.65 0 103.55S46.45 0 103.55 0 207.1 46.45 207.1 103.55 160.65 207.1 103.55 207.1Zm0-205.1C47.56 2 2 47.55 2 103.55S47.56 205.1 103.55 205.1 205.1 159.54 205.1 103.55 159.55 2 103.55 2Z"/>
  <path d="M134.46 124.1c-6.46 0-11.72-5.26-11.72-11.72s5.26-11.72 11.72-11.72 11.72 5.26 11.72 11.72-5.26 11.72-11.72 11.72Zm-61.58 0c-6.46 0-11.72-5.26-11.72-11.72s5.26-11.72 11.72-11.72 11.72 5.26 11.72 11.72-5.26 11.72-11.72 11.72Zm38.29-68.67.14.28A14.16 14.16 0 0 0 123 63.55v16.43c0 5.97-1.88 11.66-5.45 16.45-3.5 4.7-8.29 8.1-13.88 9.85a27.33 27.33 0 0 1-13.88-9.85 27.4 27.4 0 0 1-5.45-16.45V63.55c5-.36 9.42-3.3 11.69-7.84l.14-.28h15m.65-4.12H95.51c-1.16 0-2.22.65-2.74 1.69l-.43.86a10.07 10.07 0 0 1-9.07 5.6 3.06 3.06 0 0 0-3.06 3.06v17.45c0 6.86 2.17 13.4 6.26 18.9 4.1 5.5 9.73 9.46 16.31 11.43a2.93 2.93 0 0 0 1.76 0 31.44 31.44 0 0 0 16.31-11.43 31.42 31.42 0 0 0 6.26-18.9V62.52a3.06 3.06 0 0 0-3.06-3.06 10.1 10.1 0 0 1-9.07-5.6l-.43-.86a3.06 3.06 0 0 0-2.74-1.69Zm35.14 73.77a17.78 17.78 0 0 1-25.03-.02 21.33 21.33 0 0 0-4.51 4.39l1.68 1.47a23.46 23.46 0 0 1 8.01 17.64v7.14h25.69a3.06 3.06 0 0 0 3.06-3.06v-10.19c0-7.14-3.51-13.47-8.9-17.36Zm-86.58 0a21.38 21.38 0 0 0-8.9 17.36v10.19a3.06 3.06 0 0 0 3.06 3.06h25.69v-7.14c0-6.75 2.92-13.17 8.01-17.64l1.68-1.47a21.33 21.33 0 0 0-4.51-4.39 17.78 17.78 0 0 1-25.03.02Zm54.69 10.45a15.76 15.76 0 0 1-22.8 0 17.29 17.29 0 0 0-5.93 13.03v7.14H121v-7.14c0-5.19-2.3-9.86-5.93-13.03Zm-11.4-1.24a9.69 9.69 0 1 1 .02-19.38 9.69 9.69 0 0 1-.02 19.38Z"/>
  <path d="M114.48 77.27 102.95 88.8a3.05 3.05 0 0 1-4.32 0l-5.77-5.77a3.07 3.07 0 0 1 0-4.33 3.07 3.07 0 0 1 4.33 0l3.6 3.6 9.37-9.37a3.07 3.07 0 0 1 4.33 0 3.07 3.07 0 0 1 0 4.33Z"/>
</svg>
