<svg xmlns="http://www.w3.org/2000/svg" id="circle" viewBox="0 0 207.1 207.1" fill="#fff">
  <path d="M103.55 207.1C46.45 207.1 0 160.65 0 103.55S46.45 0 103.55 0 207.1 46.45 207.1 103.55 160.65 207.1 103.55 207.1Zm0-205.1C47.56 2 2 47.55 2 103.55S47.56 205.1 103.55 205.1 205.1 159.54 205.1 103.55 159.55 2 103.55 2Z" class="cls-1"/>
  <path d="M51.67 77.14c.83.18 1.61.17 3.99-1.66a21.6 21.6 0 0 0 4.06-4.09l.63-.84c5.4-7.18 18.05-24 36.31-23.09 15.06 1.1 25.74 12.47 30.87 32.89.17.69.28 1.12.4 1.45.78 3.34 2.1 7.5 4 8.87a2.66 2.66 0 0 0 3.23-4.22c-.52-.68-1.51-3.52-2.1-6.06-.03-.15-.08-.3-.14-.44l-.23-.89c-.81-3.24-2.98-11.84-8.22-19.92-6.77-10.44-16.01-16.16-27.46-16.98h-.06c-21.09-1.08-34.94 17.34-40.86 25.2l-.62.83a16.07 16.07 0 0 1-4.19 3.86 2.7 2.7 0 0 0-1.65 3.07 2.68 2.68 0 0 0 2.03 2.03Zm0 0" class="cls-1"/>
  <path d="M52.85 104.44c8.78-2.39 16.89-7.25 17.24-7.46 11.45-7.01 21.84-18.06 21.92-18.17 4.29-4.91 10.63-9.62 15.58-8.1 2.91.89 4.93 2.48 6 4.72 1.28 2.68 1.18 6.3-.27 9.94-.15.38-.33.77-.52 1.17 1.87.1 3.69.37 5.46.79 2-5.01 2.05-10.18.13-14.2-1.71-3.58-4.91-6.18-9.24-7.51-6.36-1.95-14.07 1.59-21.13 9.68-.09.1-10.14 10.67-20.7 17.14-.08.05-7.81 4.68-15.88 6.88a2.66 2.66 0 0 0 1.39 5.13Zm27.87 12.48c0-1.05.05-2.09.16-3.12-7.46 4.53-17.19 10.13-24.79 13.37a2.66 2.66 0 1 0 2.09 4.89c6.94-2.97 15.54-7.78 22.7-12.06-.1-1.02-.16-2.04-.16-3.09ZM99.61 53.5c-9.61 1-17.84 7.01-24.17 13.98-1.21 1.33-2.29 2.76-3.46 4.12a55.85 55.85 0 0 1-4.94 5.03 28.4 28.4 0 0 1-5.36 3.99 113.32 113.32 0 0 1-6.85 3.72c-.8.39-1.49.64-2.39.91a2.7 2.7 0 0 0-1.86 3.27 2.68 2.68 0 0 0 3.27 1.86c2.72-.82 5.18-2.22 7.64-3.61 2.08-1.18 4.13-2.24 6.04-3.69a58.13 58.13 0 0 0 9.85-9.73 57.76 57.76 0 0 1 7.25-7.36l.63-.52.57-.46a38.64 38.64 0 0 1 5.9-3.74 24.13 24.13 0 0 1 7.87-2.45c1.44-.15 2.66-1.1 2.66-2.66 0-1.34-1.21-2.81-2.66-2.66Zm0 0" class="cls-1"/>
  <path d="M54.75 118.4a131 131 0 0 0 28.92-14.53 30.58 30.58 0 0 1 18.55-16.04 72.04 72.04 0 0 0 4.58-5.77 2.66 2.66 0 0 0-4.33-3.09c-15.67 21.96-43.93 32.51-49.44 34.4l-.22.07a2.66 2.66 0 0 0 1.85 4.99l.09-.03ZM85 132.48a30.71 30.71 0 0 1-2.33-4.83l-2.72 1.79c-6.64 4.38-14.16 9.34-17.44 10.22a2.66 2.66 0 1 0 1.38 5.14c4.1-1.11 11.33-5.87 18.98-10.91l2.12-1.4Zm35.45 14.77c-.54-.19-1.16-.47-1.84-.82a30.6 30.6 0 0 1-9.06.89c3.43 2.12 6.64 4.05 9.09 4.93a2.66 2.66 0 1 0 1.8-5.01Zm-30.39-8.41c-3.74 2.31-8.77 5.87-15.28 10.62-1.42 1.03-2.64 1.93-3.49 2.53a2.67 2.67 0 0 0 1.53 4.84c.53 0 1.07-.16 1.53-.49.88-.62 2.12-1.53 3.56-2.58 3.6-2.63 11.85-8.65 16.56-11.39a30.7 30.7 0 0 1-4.42-3.53Zm21.41 21.63c-1.49-.98-2.87-1.96-4.2-2.9-4.36-3.12-8.13-5.81-12.26-5.09-4.65.8-12.06 8.25-13.5 9.74a2.66 2.66 0 0 0 3.82 3.7c3.56-3.68 8.62-7.86 10.58-8.2 1.94-.33 4.88 1.75 8.27 4.17 1.31.93 2.79 1.99 4.38 3.03a2.66 2.66 0 0 0 2.91-4.45Zm0 0" class="cls-1"/>
  <path d="m157.02 156.65-23.87-23.87a26.38 26.38 0 0 0 5.75-16.47c0-14.62-11.89-26.51-26.51-26.51s-26.51 11.89-26.51 26.51a26.54 26.54 0 0 0 39.33 23.2l24.47 24.47a5.18 5.18 0 1 0 7.34-7.33Zm-57.73-26.57c-.07.23-.2.35-.38.35-.04 0-.08 0-.11-.02l-.22-.21a4.4 4.4 0 0 1-.16-1.35c0-.6.04-1.02.11-1.25.08-.23.2-.34.38-.34s.3.12.38.36c.07.24.11.65.11 1.24s-.04 1-.11 1.23Zm30.07-3.97c-.59.03-1.03.24-1.33.66-.3.42-.46 1.07-.47 1.95-.38.47-.78.91-1.2 1.34v-3.87h-1.3l-1.83 1.49.75.92.6-.5c.13-.12.24-.23.33-.34l-.02.94v2.71a19.53 19.53 0 0 1-25.04-.03c.2-.11.37-.25.51-.44.32-.44.47-1.13.47-2.07s-.16-1.6-.49-2.06c-.32-.46-.8-.69-1.44-.69s-1.13.22-1.45.66a3.1 3.1 0 0 0-.46 1.66 17 17 0 0 1-.71-.96 2.44 2.44 0 0 0-.31-.67 1.62 1.62 0 0 0-.37-.37 19.48 19.48 0 0 1-2.58-7.09l.07.12c.32.46.8.69 1.44.69s1.13-.22 1.45-.66c.32-.44.47-1.13.47-2.07s-.16-1.59-.49-2.06c-.32-.46-.8-.69-1.44-.69s-1.13.22-1.45.66a1.9 1.9 0 0 0-.28.59c.05-2.56.59-5 1.54-7.23h.2c.65 0 1.13-.22 1.45-.66.32-.44.47-1.13.47-2.07 0-.35-.02-.66-.07-.95 3.55-5.02 9.4-8.31 16.01-8.31s12.02 3.05 15.6 7.75l-.39.32.75.92.34-.28.58.92v2.27h1.15a19.5 19.5 0 0 1-1.06 17.48Zm-35.31-8.7c0-.61.04-1.02.11-1.25.07-.23.2-.34.38-.34s.3.12.38.36c.08.24.11.65.11 1.24s-.04 1-.11 1.23c-.07.23-.2.35-.38.35s-.3-.11-.38-.34a4.4 4.4 0 0 1-.11-1.24Zm0 0" class="cls-1"/>
  <path d="M98.37 105.21c.13-.12.24-.23.33-.34l-.02.94v2.82h1.46v-5.32h-1.3l-1.83 1.49.75.92.6-.5Zm4.9-1.98c-.65 0-1.13.22-1.45.66-.32.44-.47 1.14-.47 2.08s.16 1.58.48 2.04c.32.46.8.69 1.44.69s1.13-.22 1.45-.66c.31-.44.47-1.13.47-2.07s-.16-1.59-.49-2.05c-.32-.46-.8-.69-1.44-.69Zm.38 3.97c-.07.23-.2.35-.38.35s-.3-.11-.38-.34c-.08-.23-.11-.64-.11-1.24s.04-1.02.11-1.25c.08-.23.2-.34.38-.34s.3.12.38.36c.08.24.11.65.11 1.24s-.04 1-.11 1.23Zm3.46-1.99c.13-.12.25-.23.33-.34l-.02.94v2.82h1.46v-5.32h-1.3l-1.83 1.49.75.92.6-.5Zm4.89-1.98c-.65 0-1.13.22-1.45.66-.32.44-.47 1.14-.47 2.08s.16 1.58.48 2.04c.32.46.8.69 1.44.69s1.13-.22 1.45-.66c.32-.44.47-1.13.47-2.07s-.16-1.59-.49-2.05c-.32-.46-.8-.69-1.44-.69Zm.38 3.97c-.07.23-.2.35-.38.35s-.3-.11-.38-.34c-.08-.23-.11-.64-.11-1.24s.04-1.02.11-1.25c.08-.23.2-.34.38-.34s.3.12.38.36c.08.24.11.65.11 1.24s-.04 1-.11 1.23Zm3.99-3.97c-.65 0-1.13.22-1.45.66-.32.44-.47 1.14-.47 2.08s.16 1.58.48 2.04c.32.46.8.69 1.44.69s1.13-.22 1.45-.66c.32-.44.47-1.13.47-2.07s-.16-1.59-.49-2.05c-.32-.46-.8-.69-1.43-.69Zm.38 3.97c-.07.23-.2.35-.38.35s-.3-.11-.38-.34c-.08-.23-.11-.64-.11-1.24s.04-1.02.11-1.25c.08-.23.2-.34.38-.34s.3.12.38.36c.07.24.11.65.11 1.24s-.04 1-.11 1.23Zm3.46-1.99c.13-.12.25-.23.34-.34l-.02.94v2.82h1.46v-5.32h-1.3l-1.83 1.49.75.92.6-.5Zm3.02-.42.75.92.6-.5c.13-.12.24-.23.33-.34l-.02.94v2.82h1.46v-5.32h-1.3l-1.83 1.49Zm-24.33 9.87c-.65 0-1.13.22-1.45.66-.32.44-.47 1.14-.47 2.08s.16 1.58.48 2.04c.32.46.8.69 1.44.69s1.13-.22 1.45-.66c.32-.44.47-1.13.47-2.07s-.16-1.59-.49-2.06c-.32-.46-.8-.69-1.44-.69Zm.38 3.98c-.07.23-.2.35-.38.35s-.3-.11-.38-.34c-.08-.23-.11-.64-.11-1.24s.04-1.02.11-1.25c.08-.23.2-.34.38-.34s.3.12.38.36c.07.24.11.65.11 1.24s-.04 1-.11 1.23Zm3.77 1.42h1.46v-5.32h-1.3l-1.83 1.49.75.92.6-.5c.13-.12.25-.23.34-.34l-.02.94v2.82Zm4.58-5.4c-.65 0-1.13.22-1.45.66-.32.44-.47 1.14-.47 2.08s.16 1.58.48 2.04c.32.46.8.69 1.44.69s1.13-.22 1.45-.66c.32-.44.47-1.13.47-2.07s-.16-1.59-.49-2.06c-.32-.46-.8-.69-1.44-.69Zm.38 3.98c-.07.23-.2.35-.38.35s-.3-.11-.38-.34c-.08-.23-.11-.64-.11-1.24s.04-1.02.11-1.25c.07-.23.2-.34.38-.34s.3.12.38.36c.08.24.11.65.11 1.24s-.04 1-.11 1.23Zm2.11-2.41.75.92.6-.5c.13-.12.25-.23.33-.34l-.02.94v2.82h1.46v-5.32h-1.3l-1.83 1.49Zm6.25-1.57c-.65 0-1.13.22-1.45.66-.32.44-.47 1.14-.47 2.08s.16 1.58.48 2.04c.32.46.8.69 1.44.69s1.13-.22 1.45-.66.47-1.13.47-2.07-.16-1.59-.49-2.06c-.32-.46-.8-.69-1.43-.69Zm.38 3.98c-.07.23-.2.35-.38.35s-.3-.11-.38-.34c-.08-.23-.11-.64-.11-1.24s.04-1.02.11-1.25c.08-.23.2-.34.38-.34s.3.12.38.36c.07.24.11.65.11 1.24s-.04 1-.11 1.23Zm3.99-3.98c-.65 0-1.13.22-1.45.66-.31.44-.47 1.14-.47 2.08s.16 1.58.48 2.04c.32.46.8.69 1.44.69s1.13-.22 1.45-.66c.32-.44.47-1.13.47-2.07s-.16-1.59-.49-2.06c-.32-.46-.8-.69-1.44-.69Zm.38 3.98c-.07.23-.2.35-.38.35s-.3-.11-.38-.34c-.08-.23-.11-.64-.11-1.24s.04-1.02.11-1.25c.07-.23.2-.34.38-.34s.3.12.38.36c.08.24.11.65.11 1.24s-.04 1-.11 1.23Zm2.11-2.41.75.92.6-.5c.13-.12.24-.23.33-.34l-.02.94v2.82h1.46v-5.32h-1.3l-1.83 1.49Zm6.24-1.57c-.65 0-1.13.22-1.45.66-.32.44-.47 1.14-.47 2.08s.16 1.58.48 2.04c.32.46.8.69 1.44.69s1.13-.22 1.45-.66c.32-.44.47-1.13.47-2.07s-.16-1.59-.49-2.06c-.32-.46-.8-.69-1.44-.69Zm.38 3.98c-.07.23-.2.35-.38.35s-.3-.11-.38-.34c-.08-.23-.11-.64-.11-1.24s.04-1.02.11-1.25c.08-.23.2-.34.38-.34s.3.12.38.36c.07.24.11.65.11 1.24s-.04 1-.11 1.23Zm-26.58 7.46c-.65 0-1.13.22-1.45.66-.32.44-.47 1.14-.47 2.08s.16 1.58.48 2.04c.32.46.8.69 1.44.69s1.13-.22 1.45-.66c.31-.44.47-1.13.47-2.07s-.16-1.59-.49-2.05c-.32-.46-.8-.69-1.44-.69Zm.38 3.97c-.07.23-.2.35-.38.35s-.3-.11-.38-.34c-.08-.23-.11-.64-.11-1.24s.04-1.02.11-1.25c.08-.23.2-.34.38-.34s.3.12.38.36c.08.24.11.65.11 1.24s-.04 1-.11 1.23Zm2.11-2.41.75.92.6-.5c.13-.12.25-.23.33-.34l-.02.94v2.82h1.46v-5.32h-1.3l-1.83 1.49Zm4.36 0 .75.92.6-.5c.13-.12.25-.23.33-.34l-.02.94v2.82h1.46v-5.32h-1.3l-1.83 1.49Zm4.37 0 .75.92.6-.5c.13-.12.24-.23.33-.34l-.02.94v2.82h1.46v-5.32h-1.3l-1.83 1.49Zm6.25-1.56c-.65 0-1.13.22-1.45.66-.31.44-.47 1.14-.47 2.08s.16 1.58.48 2.04c.32.46.8.69 1.44.69s1.13-.22 1.45-.66c.32-.44.47-1.13.47-2.07s-.16-1.59-.49-2.05c-.32-.46-.8-.69-1.44-.69Zm.38 3.97c-.07.23-.2.35-.38.35s-.3-.11-.38-.34c-.08-.23-.11-.64-.11-1.24s.04-1.02.11-1.25c.07-.23.2-.34.38-.34s.3.12.38.36c.08.24.11.65.11 1.24s-.04 1-.11 1.23Zm0 0" class="cls-1"/>
</svg>
